<svg width="40" height="40" viewBox="0 0 40 40" fill="none" xmlns="http://www.w3.org/2000/svg">
<path fill-rule="evenodd" clip-rule="evenodd" d="M18.3346 2.9165C16.9703 2.91666 15.6562 3.43168 14.6551 4.35863C13.654 5.28559 13.0396 6.55619 12.9346 7.9165H12.4413C10.9346 7.9165 9.71964 7.9165 8.73797 8.00484C7.72797 8.0965 6.84464 8.2915 6.04297 8.75484C5.09273 9.30302 4.30351 10.0917 3.75464 11.0415C3.29297 11.8432 3.09797 12.7265 3.0063 13.7365C2.91797 14.7182 2.91797 15.9332 2.91797 17.4398V17.5598C2.91797 19.0665 2.91797 20.2815 3.0063 21.2632C3.09797 22.2732 3.29297 23.1565 3.7563 23.9582C4.17797 24.6915 4.74464 25.3282 5.41797 25.8332V25.9248C5.41797 28.2032 5.41797 30.0415 5.61297 31.4865C5.81297 32.9865 6.2463 34.2498 7.24797 35.2532C8.2513 36.2565 9.51464 36.6865 11.0146 36.8898C12.4596 37.0832 14.298 37.0832 16.5763 37.0832H23.4263C25.7046 37.0832 27.543 37.0832 28.988 36.8898C30.488 36.6865 31.7513 36.2565 32.7546 35.2532C33.758 34.2498 34.188 32.9865 34.3913 31.4865C34.5846 30.0415 34.5846 28.2032 34.5846 25.9248V25.8332C35.26 25.3269 35.8258 24.6891 36.248 23.9582C36.7096 23.1565 36.9046 22.2732 36.9963 21.2632C37.0846 20.2815 37.0846 19.0665 37.0846 17.5598V17.4398C37.0846 15.9332 37.0846 14.7182 36.9963 13.7365C36.9046 12.7265 36.7096 11.8432 36.2463 11.0415C35.6981 10.0913 34.9095 9.30205 33.9596 8.75317C33.158 8.2915 32.2746 8.0965 31.2646 8.00484C30.283 7.9165 29.068 7.9165 27.5613 7.9165H27.068C26.963 6.55619 26.3486 5.28559 25.3475 4.35863C24.3464 3.43168 23.0323 2.91666 21.668 2.9165H18.3346ZM18.3346 5.4165C17.6333 5.41652 16.9554 5.66926 16.4253 6.12841C15.8951 6.58755 15.5482 7.22235 15.448 7.9165H24.5546C24.4544 7.22235 24.1075 6.58755 23.5773 6.12841C23.0472 5.66926 22.3693 5.41652 21.668 5.4165H18.3346ZM8.08964 31.1532C7.9463 30.0882 7.92297 28.7298 7.91797 26.8898C8.18297 26.9348 8.4563 26.9682 8.73797 26.9948C9.71964 27.0832 10.9346 27.0832 12.4413 27.0832H15.5913C15.8637 28.043 16.4418 28.8879 17.2378 29.4894C18.0338 30.091 19.0044 30.4165 20.0021 30.4165C20.9999 30.4165 21.9704 30.091 22.7665 29.4894C23.5625 28.8879 24.1406 28.043 24.413 27.0832H27.5613C29.068 27.0832 30.283 27.0832 31.2646 26.9948C31.548 26.9682 31.8196 26.9348 32.0846 26.8898C32.0796 28.7298 32.0563 30.0882 31.913 31.1532C31.748 32.3765 31.4463 33.0232 30.9863 33.4848C30.5246 33.9465 29.878 34.2465 28.653 34.4115C27.3946 34.5798 25.7263 34.5832 23.3346 34.5832H16.668C14.2763 34.5832 12.6063 34.5798 11.348 34.4115C10.1246 34.2465 9.47797 33.9448 9.0163 33.4848C8.55464 33.0232 8.25464 32.3765 8.08964 31.1515V31.1532ZM24.413 24.5832H27.5013C29.0813 24.5832 30.1846 24.5832 31.038 24.5048C31.8763 24.4282 32.3513 24.2882 32.7096 24.0815C33.2796 23.7515 33.753 23.2782 34.083 22.7082C34.2896 22.3498 34.4296 21.8748 34.5063 21.0365C34.583 20.1832 34.5846 19.0798 34.5846 17.4998C34.5846 15.9198 34.5846 14.8165 34.5063 13.9632C34.4296 13.1248 34.2896 12.6498 34.083 12.2915C33.7537 11.7211 33.2801 11.2474 32.7096 10.9182C32.3513 10.7115 31.8763 10.5715 31.038 10.4948C30.1846 10.4182 29.0813 10.4165 27.5013 10.4165H12.5013C10.9213 10.4165 9.81797 10.4165 8.96464 10.4948C8.1263 10.5715 7.6513 10.7115 7.29297 10.9182C6.72253 11.2474 6.24887 11.7211 5.91964 12.2915C5.71297 12.6498 5.57297 13.1248 5.4963 13.9632C5.41964 14.8165 5.41797 15.9198 5.41797 17.4998C5.41797 19.0798 5.41797 20.1832 5.4963 21.0365C5.57297 21.8732 5.71297 22.3498 5.91964 22.7082C6.24964 23.2782 6.72297 23.7515 7.29297 24.0815C7.6513 24.2882 8.1263 24.4282 8.96464 24.5048C9.81797 24.5815 10.9213 24.5832 12.5013 24.5832H15.5913C15.8637 23.6233 16.4418 22.7785 17.2378 22.1769C18.0338 21.5754 19.0044 21.2499 20.0021 21.2499C20.9999 21.2499 21.9704 21.5754 22.7665 22.1769C23.5625 22.7785 24.1406 23.6233 24.413 24.5832ZM17.918 25.8332C17.918 25.2806 18.1375 24.7507 18.5282 24.36C18.9189 23.9693 19.4488 23.7498 20.0013 23.7498C20.5538 23.7498 21.0837 23.9693 21.4744 24.36C21.8651 24.7507 22.0846 25.2806 22.0846 25.8332C22.0846 26.3857 21.8651 26.9156 21.4744 27.3063C21.0837 27.697 20.5538 27.9165 20.0013 27.9165C19.4488 27.9165 18.9189 27.697 18.5282 27.3063C18.1375 26.9156 17.918 26.3857 17.918 25.8332Z" fill="url(#paint0_linear_4551_11158)"/>
<defs>
<linearGradient id="paint0_linear_4551_11158" x1="29.7684" y1="-12.3587" x2="-21.158" y2="6.02946" gradientUnits="userSpaceOnUse">
<stop stop-color="#FFA693"/>
<stop offset="0.482869" stop-color="#AA6BC1"/>
<stop offset="1" stop-color="#3E43C6"/>
</linearGradient>
</defs>
</svg>
